<?xml version="1.0" encoding="UTF-8"?>
<svg version="1.1" xmlns="http://www.w3.org/2000/svg" width="1188" height="410">
<path d="M0 0 C0.30414963 24.15683861 0.53315349 48.31338886 0.67355824 72.47175884 C0.74049423 83.6899142 0.83169098 94.90687754 0.98071289 106.12426758 C1.11059214 115.90541573 1.19422759 125.68570041 1.22315043 135.46768695 C1.24004963 140.64416979 1.27954231 145.81818327 1.37449074 150.99387169 C1.46329081 155.87433589 1.48984496 160.75133484 1.47039986 165.63253021 C1.47395222 167.415588 1.49949487 169.19877159 1.54967117 170.98112679 C1.78261554 179.68900022 1.63276703 186.13183946 -4.57382709 192.7042349 C-6.80447004 194.82411341 -9.11400454 196.80947914 -11.50688899 198.74332869 C-13.45556008 200.38342044 -15.07369681 202.22216309 -16.6875 204.1875 C-20.09976639 208.20940207 -23.84368799 211.85761946 -27.59375 215.5625 C-29.65449345 217.65000635 -31.59515626 219.77169223 -33.5 222 C-36.98452107 226.07623219 -40.78081981 229.79550873 -44.59375 233.5625 C-46.65449345 235.65000635 -48.59515626 237.77169223 -50.5 240 C-53.98452107 244.07623219 -57.78081981 247.79550873 -61.59375 251.5625 C-64.24704982 254.25025826 -66.69686671 257.05983923 -69.1484375 259.9296875 C-72.13820357 263.27267488 -75.35927187 266.3788432 -78.5703125 269.5078125 C-81.11274357 271.96644278 -81.11274357 271.96644278 -83.09428406 275.1131897 C-84.6515906 276.97795618 -85.55321253 277.87251612 -87.90552711 278.54371262 C-90.2639558 278.73872359 -92.55531339 278.74242302 -94.92114258 278.68115234 C-95.80944763 278.6820285 -96.69775269 278.68290466 -97.61297607 278.68380737 C-100.54106433 278.67963633 -103.46684466 278.63300786 -106.39453125 278.5859375 C-108.42761483 278.57474363 -110.46071463 278.56620435 -112.49382019 278.56021118 C-117.83882517 278.53732804 -123.18284819 278.47840856 -128.52746582 278.4119873 C-133.98367021 278.35055406 -139.44003365 278.3231939 -144.89648438 278.29296875 C-155.59808713 278.22866539 -166.29896184 278.12629156 -177 278 C-177.33148227 270.51224748 -177.55800792 263.0264028 -177.71411133 255.53295898 C-177.77921829 252.98829472 -177.86773854 250.44411182 -177.98071289 247.90112305 C-178.94625562 225.59752293 -178.94625562 225.59752293 -174.26586914 219.98413086 C-171.14982047 217.05419727 -167.72663895 215.07378438 -164 213 C-161.8778861 211.46121508 -159.85711894 209.8308516 -157.8125 208.1875 C-156.73620842 207.36478343 -155.65849584 206.54391492 -154.578125 205.7265625 C-150.38131869 202.53727553 -146.22189053 199.30034891 -142.0625 196.0625 C-141.29365479 195.46421387 -140.52480957 194.86592773 -139.73266602 194.24951172 C-135.06386487 190.61388479 -130.4022844 186.96923655 -125.75 183.3125 C-125.18659912 182.86970703 -124.62319824 182.42691406 -124.04272461 181.97070312 C-121.22009439 179.7507393 -118.40098 177.52645282 -115.5859375 175.296875 C-112.68587003 173.00216739 -109.77582334 170.72069949 -106.85791016 168.44873047 C-105.57138554 167.44554557 -104.28736801 166.43914031 -103.00537109 165.43017578 C-89.71080591 154.99594687 -76.65648564 146.45170784 -59 148 C-55.63609475 148.54728332 -52.31822518 149.22413106 -49 150 C-50.5818384 153.88388656 -53.22809853 156.50166062 -56.1640625 159.39453125 C-56.93041519 160.16019661 -56.93041519 160.16019661 -57.71224976 160.94132996 C-58.79424592 162.02031057 -59.87866599 163.09686524 -60.96533203 164.17114258 C-62.60368276 165.79141795 -64.23406937 167.41936932 -65.86328125 169.04882812 C-70.78300189 173.95165399 -75.7479324 178.75067113 -81.02490234 183.27172852 C-85.15712639 186.88755225 -89.07497989 190.72490354 -93 194.5625 C-93.87011719 195.38685547 -94.74023438 196.21121094 -95.63671875 197.06054688 C-96.45785156 197.86685547 -97.27898437 198.67316406 -98.125 199.50390625 C-98.87007813 200.22392822 -99.61515625 200.9439502 -100.3828125 201.68579102 C-102.45367444 204.64921196 -102.40068841 206.45702271 -102 210 C-100.56222319 212.08477638 -99.40201761 212.81239178 -97.125 213.875 C-93.93490952 214.06265238 -92.63403344 212.82888629 -90 211 C-87.46561667 208.67681528 -85.07786639 206.22012583 -82.6875 203.75 C-79.01002282 199.97026548 -75.35093015 196.24729836 -71.33203125 192.828125 C-65.22436259 187.56901174 -59.66156293 181.72877199 -54 176 C-51.73221206 173.70529089 -49.46213013 171.41292817 -47.1875 169.125 C-46.37418213 168.30684814 -46.37418213 168.30684814 -45.54443359 167.47216797 C-42.06252632 163.99453429 -38.49253686 160.68430638 -34.68359375 157.5625 C-34.12800781 157.046875 -33.57242188 156.53125 -33 156 C-32.30769791 155.38041412 -31.61539581 154.76082825 -30.90211487 154.12246704 C-27.99308537 149.34707262 -28.64637493 144.94920262 -28.88256836 139.47802734 C-28.95105682 137.05879771 -29.01914805 134.6395568 -29.0868988 132.2203064 C-29.12988035 130.93727001 -29.1728619 129.65423363 -29.21714592 128.33231735 C-29.34119947 124.29178036 -29.42271861 120.25294012 -29.48377991 116.21109009 C-29.49959442 115.1832582 -29.49959442 115.1832582 -29.51572841 114.13466203 C-29.53707432 112.73295233 -29.55823708 111.33123983 -29.57922089 109.92952466 C-29.72099581 100.52969817 -29.89263301 91.1353076 -30.24438477 81.74072266 C-30.55119529 73.35575315 -30.73013649 64.97681911 -30.71484375 56.5859375 C-30.71385665 55.91212005 -30.71286956 55.23830259 -30.71185255 54.54406643 C-30.62653821 38.48261575 -29.77969655 25.06181836 -18.2535553 13.02017212 C-4.50245663 0 -4.50245663 0 0 0 Z " fill="#FEFAE0" transform="translate(438,79)"/>
<path d="M0 0 C1.58855151 1.36855875 3.17667365 2.73761751 4.76328659 4.10842323 C6.32600874 5.43000914 7.91167934 6.72472139 9.5137825 7.99828148 C19.51064423 16.03900024 28.75722906 23.68867864 30.21845055 37.0743227 C30.47678151 43.37046174 30.29097952 49.60203102 30.0234375 55.89453125 C29.97625051 58.62539462 29.96330349 61.35611319 29.9503479 64.08732605 C29.90243363 70.4906817 29.75411449 76.88700772 29.56198943 83.28750676 C29.22071767 94.76959908 29.05546005 106.25506687 28.92642462 117.74128264 C28.88526372 121.10610973 28.82354326 124.46831199 28.71656418 127.83173561 C28.59811815 131.56849135 28.51968897 135.30435999 28.44677734 139.04223633 C28.39796921 140.13997375 28.34916107 141.23771118 28.2988739 142.36871338 C28.23158821 147.96514948 28.63041071 151.2556636 32.35580444 155.57615662 C33.54278778 156.74627056 34.75597172 157.89072559 36 159 C36.94391602 159.90395508 37.88783203 160.80791016 38.86035156 161.73925781 C39.7778418 162.55233398 40.69533203 163.36541016 41.640625 164.203125 C46.00051345 168.12123447 50.22712285 172.13926967 54.359375 176.296875 C55.14870422 177.09103821 55.14870422 177.09103821 55.95397949 177.90124512 C57.554607 179.51557725 59.15275516 181.13232132 60.75 182.75 C69.76711678 191.89386207 69.76711678 191.89386207 79.29248047 200.50195312 C82.90011734 203.66701744 86.0998497 207.25078102 89.38671875 210.7421875 C92.100001 213.08639847 93.46532376 213.80263229 97 214 C99.70637529 213.02269781 100.70256222 212.59487555 102 210 C102.5172048 207.16131714 102.5172048 207.16131714 102 204 C100.32448637 201.78579364 98.80242818 200.0751893 96.8125 198.19140625 C96.27657227 197.66159653 95.74064453 197.1317868 95.18847656 196.58592224 C93.47257192 194.89689078 91.73676035 193.23005037 90 191.5625 C88.86196193 190.44600464 87.72522873 189.3281776 86.58984375 188.20898438 C81.51834251 183.23282979 76.37753472 178.3915813 70.984375 173.76391602 C66.65511922 169.91562948 62.59597611 165.78049939 58.5 161.6875 C57.5821875 160.78193359 56.664375 159.87636719 55.71875 158.94335938 C54.8525 158.07904297 53.98625 157.21472656 53.09375 156.32421875 C52.30677734 155.54135498 51.51980469 154.75849121 50.70898438 153.9519043 C49 152 49 152 49 150 C63.08507643 146.76735951 76.43717765 147.53302628 89.16796875 155.08203125 C94.39988928 158.62530433 99.30273464 162.55884464 104.20166016 166.54443359 C107.10793513 168.89675662 110.05529653 171.19611283 113 173.5 C114.16687573 174.41640052 115.33354221 175.33306755 116.5 176.25 C117.0775 176.70375 117.655 177.1575 118.25 177.625 C123.5 181.75 123.5 181.75 125.24902344 183.12426758 C126.41890016 184.04343313 127.58882223 184.96254095 128.75878906 185.8815918 C131.62671157 188.13456094 134.4939099 190.38843723 137.359375 192.64453125 C138.48951827 193.53393684 139.61972715 194.42325909 140.75 195.3125 C141.31501221 195.75706543 141.88002441 196.20163086 142.4621582 196.65966797 C145.79794015 199.28073862 149.14295816 201.88944136 152.49609375 204.48828125 C153.27436523 205.0918042 154.05263672 205.69532715 154.85449219 206.31713867 C156.35021044 207.47617945 157.84687133 208.63400541 159.34472656 209.7902832 C160.79314892 210.91269463 162.22233372 212.06029391 163.63305664 213.22973633 C166.00043591 215.11340475 166.00043591 215.11340475 168.97436523 216.46362305 C172.5311419 218.5078035 175.16892122 220.30878772 177 224 C178.88408107 232.98724202 178.02766635 242.4515266 177.6875 251.5625 C177.63228525 254.12294228 177.58210181 256.68349832 177.53710938 259.24414062 C177.41627637 265.49858643 177.232582 271.74876534 177 278 C165.37783948 278.34908594 153.75694471 278.61482768 142.13059044 278.77718258 C136.73034622 278.85515015 131.33371268 278.96068906 125.93554688 279.1315918 C120.715625 279.29579812 115.49915094 279.38450209 110.27684402 279.42315865 C108.29502718 279.45066483 106.31337848 279.50438614 104.33304977 279.58595085 C88.05272334 280.22920893 88.05272334 280.22920893 81.81427002 274.80691528 C78.76338294 271.73405238 76.12073118 268.42316238 73.54007339 264.95215034 C71.39759219 262.23640612 68.98060619 259.86193009 66.49847984 257.45873928 C64.78219095 255.78796737 63.22489043 254.02325191 61.6875 252.1875 C58.92381971 248.97666245 56.01380404 245.97732835 53 243 C49.43599698 239.47893677 46.09695832 235.86813992 42.84375 232.0625 C40.65203687 229.61075311 38.33932896 227.31114427 36 225 C32.43599698 221.47893677 29.09695832 217.86813992 25.84375 214.0625 C22.84894349 210.71237746 19.61366404 207.60623694 16.41796875 204.44921875 C13.76526243 201.76222866 11.28664209 198.97569392 8.86328125 196.08203125 C7.16575172 194.00488429 7.16575172 194.00488429 5.31472683 192.89685726 C1.62054679 190.13936731 0.17007954 187.96575529 -0.63841057 183.37494087 C-0.95862701 178.59857022 -0.86625676 173.82266801 -0.79467773 169.03930664 C-0.79270204 167.19593379 -0.79381385 165.35255544 -0.79777527 163.50918579 C-0.79978114 158.51547309 -0.75866923 153.52294085 -0.70975757 148.52950215 C-0.665955 143.30719973 -0.66188302 138.08486928 -0.65357971 132.8624115 C-0.6318356 122.97778755 -0.57440942 113.09370649 -0.50413328 103.20932144 C-0.4258518 91.95431101 -0.38739371 80.69927445 -0.35226524 69.44405949 C-0.27912597 46.29573885 -0.15602603 23.14789987 0 0 Z " fill="#FEFAE0" transform="translate(0,79)"/>
<path d="M0 0 C3.52184388 3.3395673 6.31389984 6.97084976 9 11 C9.598125 10.649375 10.19625 10.29875 10.8125 9.9375 C13 9 13 9 16 10 C14.02 11.32 12.04 12.64 10 14 C17.31290562 28.65518033 25.15171919 41.75653213 35.4128418 54.48876953 C42.63768888 63.50022515 46.88032167 70.0210426 46.4375 81.921875 C45.32627112 89.74016389 40.03395867 94.46308565 34.1875 99.3671875 C28.68979245 103.47083349 22.64600228 103.788843 16 103 C9.18784744 101.08476222 2.9115473 97.52514668 -3.3359375 94.26953125 C-11.59233388 90.33503151 -23.24395016 90.64086631 -31.8125 93.625 C-36.58995028 95.63845714 -41.11158236 98.1252946 -45.58984375 100.73046875 C-51.35898548 103.76931974 -58.09622512 104.00970784 -64.37109375 102.38671875 C-71.59327777 99.54540892 -76.43543995 94.44612757 -81 88.3125 C-83.32402979 80.61415133 -83.01678557 73.24953631 -79.625 65.9375 C-76.90315416 61.05606756 -73.60080996 56.90418791 -69.95117188 52.68652344 C-60.88019724 42.15747363 -54.36636752 30.30487144 -48.10986328 17.9440918 C-42.74743556 7.35777931 -37.76315312 -0.93636528 -26 -5 C-16.78989371 -7.45602834 -7.76345226 -5.31868002 0 0 Z " fill="#FEFAE0" transform="translate(237,103)"/>
<path d="M0 0 C11.30451013 8.2080871 19.3333494 18.60055687 21.5703125 32.55859375 C22.18970461 37.86457515 22.10764374 43.1658471 22.0625 48.5 C22.041875 51.965 22.02125 55.43 22 59 C12.76 59 3.52 59 -6 59 C-6.6229889 55.26206659 -7.12181044 52.15484908 -7.2109375 48.46875 C-7.23929688 47.65792969 -7.26765625 46.84710938 -7.296875 46.01171875 C-7.34895135 44.33746416 -7.39322507 42.66294864 -7.4296875 40.98828125 C-7.62183574 35.95239603 -8.23081828 32.36781562 -11 28 C-14.6799016 24.59609102 -17.26528618 23.1309218 -22.3125 22.75 C-26.95367488 23.06465592 -30.08781977 24.11359039 -33.44921875 27.4296875 C-37.68004809 32.30302101 -38.36424339 36.13272943 -38.2734375 42.37109375 C-37.59302593 48.91276495 -34.31764723 53.18671496 -29.33032227 57.34033203 C-23.77864713 61.29426473 -17.48406981 64.17582134 -11.40820312 67.24194336 C2.00202583 74.04187402 14.07247943 81.75032718 19.8125 96.25 C23.66889715 108.42809625 22.73721225 120.59567822 17.3125 132.125 C11.09157348 143.80419138 2.0934711 151.3940489 -10.60888672 155.41333008 C-14.5390399 156.37761006 -18.34335187 156.48947336 -22.375 156.4375 C-23.61999268 156.42614014 -23.61999268 156.42614014 -24.89013672 156.41455078 C-36.36774316 156.10749511 -45.80739646 151.8342612 -54.16015625 143.96484375 C-63.75140661 133.79991112 -67.36825245 122.85792767 -67.125 109.0625 C-67.08375 105.741875 -67.0425 102.42125 -67 99 C-57.76 99 -48.52 99 -39 99 C-38.938125 101.64 -38.87625 104.28 -38.8125 107 C-38.43954003 115.22380622 -37.00768181 120.33583377 -30.8125 126 C-26.50641427 127.5310527 -22.51255311 127.64465044 -18 127 C-13.13024058 124.65530102 -10.55552581 121.7324552 -8 117 C-6.64409332 112.35117708 -7.03122487 109.40630624 -9 105 C-12.42847439 99.56929656 -17.39404924 97.18524252 -22.875 94.1875 C-23.81520996 93.65906494 -24.75541992 93.13062988 -25.72412109 92.58618164 C-29.82687468 90.28351558 -33.94503215 88.01745156 -38.109375 85.828125 C-50.6461594 79.08612095 -59.96412092 70.56353494 -65 57 C-68.6473271 44.66976271 -68.77377439 30.68420615 -63 19 C-56.46518347 7.42016967 -47.00767303 -0.87172686 -34.10058594 -4.53979492 C-22.94343728 -6.98414932 -9.78224368 -5.89736826 0 0 Z " fill="#FEFAE0" transform="translate(1166,173)"/>
<path d="M0 0 C1.51815699 0.00015911 3.0363194 0.00585313 4.55444336 0.01586914 C5.35208603 0.01728409 6.1497287 0.01869904 6.97154236 0.02015686 C9.52916146 0.02577223 12.08669429 0.03832727 14.64428711 0.05102539 C16.37410356 0.05603841 18.10392137 0.06060166 19.83374023 0.06469727 C24.08312264 0.07574664 28.33244023 0.09302153 32.58178711 0.11352539 C35.97791649 19.5664035 39.3682604 39.02028144 42.75172424 58.47536659 C44.32286697 67.50871681 45.89589954 76.54173031 47.47338867 85.57397461 C48.84835785 93.44667682 50.21977368 101.31998831 51.58693027 109.19405115 C52.31091725 113.36307876 53.036677 117.53178013 53.76669312 121.69975662 C54.45395718 125.62397344 55.1364617 129.5489885 55.81534958 133.47466278 C56.06513396 134.91407784 56.31664488 136.35319454 56.5700264 137.79198074 C56.91627824 139.7596412 57.25566424 141.72850614 57.59472656 143.69741821 C57.88232597 145.34834945 57.88232597 145.34834945 58.17573547 147.03263283 C58.58178711 150.11352539 58.58178711 150.11352539 58.58178711 156.11352539 C49.67178711 156.11352539 40.76178711 156.11352539 31.58178711 156.11352539 C29.58178711 149.11352539 29.58178711 149.11352539 28.58178711 139.11352539 C18.68178711 139.11352539 8.78178711 139.11352539 -1.41821289 139.11352539 C-1.74821289 143.07352539 -2.07821289 147.03352539 -2.41821289 151.11352539 C-2.74821289 152.76352539 -3.07821289 154.41352539 -3.41821289 156.11352539 C-12.65821289 156.11352539 -21.89821289 156.11352539 -31.41821289 156.11352539 C-30.29317736 143.73813457 -30.29317736 143.73813457 -29.31762695 138.33065796 C-29.09892944 137.10534363 -28.88023193 135.8800293 -28.65490723 134.61758423 C-28.41464647 133.29899379 -28.17428679 131.98042138 -27.93383789 130.66186523 C-27.6787621 129.24323528 -27.42409443 127.8245319 -27.1697998 126.40576172 C-26.48414115 122.58748057 -25.79254828 118.77029734 -25.09959412 114.95333433 C-24.37372841 110.95051481 -23.65268649 106.94682599 -22.9309082 102.94326782 C-21.7204132 96.23329395 -20.50602624 89.52403332 -19.28930664 82.81518555 C-17.88152521 75.05256117 -16.48004497 67.28881881 -15.08185196 59.5244621 C-13.73518219 52.04707531 -12.38405284 44.57050102 -11.03088379 37.09428787 C-10.45526477 33.91354081 -9.88123532 30.73251289 -9.30847168 27.55125046 C-8.6357469 23.81591064 -7.95914102 20.08129473 -7.27946472 16.34721375 C-7.03016419 14.97397651 -6.78222744 13.60049093 -6.53572083 12.22674942 C-6.20040456 10.35935792 -5.85976013 8.49292544 -5.51879883 6.6265564 C-5.3292865 5.57985968 -5.13977417 4.53316296 -4.94451904 3.45474815 C-4.11895916 -0.21767633 -3.97329859 0.13196085 0 0 Z M13.58178711 47.11352539 C12.27429234 55.25804062 10.97014845 63.40308231 9.67027283 71.54881668 C9.06657687 75.33123155 8.46173062 79.11345496 7.85424805 82.89526367 C7.2679821 86.54526175 6.68474761 90.19573247 6.10360718 93.84654999 C5.88141662 95.23896273 5.65813636 96.63120204 5.43374634 98.02326202 C5.11952742 99.97378508 4.80954925 101.92498987 4.49975586 103.8762207 C4.32210693 104.98652649 4.14445801 106.09683228 3.96142578 107.24078369 C3.49444513 110.2914928 3.49444513 110.2914928 3.58178711 114.11352539 C10.18178711 114.11352539 16.78178711 114.11352539 23.58178711 114.11352539 C22.988049 105.3393955 22.05901727 96.72282286 20.73413086 88.03149414 C20.55797745 86.85130203 20.38182404 85.67110992 20.20033264 84.45515442 C19.64428746 80.73645098 19.08190425 77.01873959 18.51928711 73.30102539 C18.13800566 70.75877095 17.7571425 68.21645373 17.37670898 65.67407227 C16.44989659 59.48649032 15.51789805 53.29970703 14.58178711 47.11352539 C14.25178711 47.11352539 13.92178711 47.11352539 13.58178711 47.11352539 Z " fill="#FEFAE0" transform="translate(943.418212890625,170.886474609375)"/>
<path d="M0 0 C7.7554185 -0.1020663 15.51066147 -0.17174376 23.26660156 -0.21972656 C25.90078199 -0.23974608 28.53491852 -0.26697002 31.16894531 -0.30175781 C34.97211594 -0.35070096 38.77469506 -0.37306657 42.578125 -0.390625 C43.74112122 -0.41127014 44.90411743 -0.43191528 46.10235596 -0.45318604 C59.40086575 -0.45677254 69.30811383 3.39415283 78.74609375 12.7265625 C87.80395034 22.62018142 90.68683588 36.14370592 90.21875 49.328125 C89.15082775 62.37203246 85.75187391 74.01333199 77 84 C76.24976563 84.90685547 76.24976563 84.90685547 75.484375 85.83203125 C68.31523857 93.81900606 59.25140113 96.72191086 49 99 C42.07 99 35.14 99 28 99 C28 117.81 28 136.62 28 156 C18.43 156 8.86 156 -1 156 C-1.07244447 125.73632293 -0.81639733 95.47667009 -0.55461788 65.21447682 C-0.49299988 58.08451678 -0.43307066 50.9545428 -0.37324238 43.82456756 C-0.25062781 29.2163629 -0.12602078 14.60817568 0 0 Z M28 27 C28 41.52 28 56.04 28 71 C43.53486948 71.9622531 43.53486948 71.9622531 55.875 65.25 C60.52686156 58.1353882 62.57413226 51.46845086 62 43 C60.59401571 37.28749689 58.145802 33.145802 54 29 C46.64785905 25.70013263 46.64785905 25.70013263 28 27 Z " fill="#FEFAE0" transform="translate(815,171)"/>
<path d="M0 0 C7.7554185 -0.1020663 15.51066147 -0.17174376 23.26660156 -0.21972656 C25.90078199 -0.23974608 28.53491852 -0.26697002 31.16894531 -0.30175781 C34.97211594 -0.35070096 38.77469506 -0.37306657 42.578125 -0.390625 C43.74112122 -0.41127014 44.90411743 -0.43191528 46.10235596 -0.45318604 C59.40086575 -0.45677254 69.30811383 3.39415283 78.74609375 12.7265625 C87.80395034 22.62018142 90.68683588 36.14370592 90.21875 49.328125 C89.15082775 62.37203246 85.75187391 74.01333199 77 84 C76.24976563 84.90685547 76.24976563 84.90685547 75.484375 85.83203125 C68.31523857 93.81900606 59.25140113 96.72191086 49 99 C42.07 99 35.14 99 28 99 C28 117.81 28 136.62 28 156 C18.43 156 8.86 156 -1 156 C-1.07244447 125.73632293 -0.81639733 95.47667009 -0.55461788 65.21447682 C-0.49299988 58.08451678 -0.43307066 50.9545428 -0.37324238 43.82456756 C-0.25062781 29.2163629 -0.12602078 14.60817568 0 0 Z M28 27 C28 41.52 28 56.04 28 71 C43.53486948 71.9622531 43.53486948 71.9622531 55.875 65.25 C60.52686156 58.1353882 62.57413226 51.46845086 62 43 C60.59401571 37.28749689 58.145802 33.145802 54 29 C46.64785905 25.70013263 46.64785905 25.70013263 28 27 Z " fill="#FEFAE0" transform="translate(528,171)"/>
<path d="M0 0 C24.75 0 49.5 0 75 0 C75 8.91 75 17.82 75 27 C59.49 27 43.98 27 28 27 C28 38.55 28 50.1 28 62 C43.51 62 59.02 62 75 62 C75 70.91 75 79.82 75 89 C59.49 89 43.98 89 28 89 C28 101.87 28 114.74 28 128 C43.51 128 59.02 128 75 128 C75 137.24 75 146.48 75 156 C65.238486 156.02255193 55.47698917 156.04091561 45.71545506 156.05181217 C41.18325906 156.05704078 36.65108173 156.06413801 32.11889648 156.07543945 C27.7487717 156.08626914 23.37866492 156.09227701 19.00852776 156.09487724 C17.33749037 156.09673135 15.66645403 156.10035168 13.99542427 156.10573006 C11.66302449 156.11294159 9.33070007 156.1139909 6.99829102 156.11352539 C6.3005809 156.11712067 5.60287079 156.12071594 4.88401794 156.12442017 C0.11405216 156.11405216 0.11405216 156.11405216 -1 155 C-1.09923686 153.41593069 -1.12799431 151.82740846 -1.12939453 150.24023438 C-1.13250641 149.20295197 -1.13561829 148.16566956 -1.13882446 147.09695435 C-1.13684052 145.94089691 -1.13485657 144.78483948 -1.1328125 143.59375 C-1.13413177 142.37058075 -1.13545105 141.1474115 -1.1368103 139.88717651 C-1.13842493 136.47626442 -1.13494814 133.06543515 -1.12857056 129.65453339 C-1.12500879 127.50530359 -1.12338081 125.35608052 -1.12231445 123.20684814 C-1.09723337 82.13564262 -0.52386407 41.0672009 0 0 Z " fill="#FEFAE0" transform="translate(631,171)"/>
<path d="M0 0 C29.04 0 58.08 0 88 0 C88 8.91 88 17.82 88 27 C78.1 27 68.2 27 58 27 C58 69.57 58 112.14 58 156 C48.76 156 39.52 156 30 156 C30 113.43 30 70.86 30 27 C20.1 27 10.2 27 0 27 C0 18.09 0 9.18 0 0 Z " fill="#FEFAE0" transform="translate(716,171)"/>
<path d="M0 0 C9.24 0 18.48 0 28 0 C28 42.57 28 85.14 28 129 C43.51 129 59.02 129 75 129 C75 138.24 75 147.48 75 157 C49.92 157 24.84 157 -1 157 C-1.08685517 118.26259401 -0.95477701 79.54639017 -0.5 40.8125 C-0.48804218 39.79364967 -0.47608437 38.77479935 -0.46376419 37.72507477 C-0.31558855 25.14996728 -0.16035897 12.57495769 0 0 Z " fill="#FEFAE0" transform="translate(1016,171)"/>
<path d="M0 0 C37.62 0 75.24 0 114 0 C114 12.87 114 25.74 114 39 C76.38 39 38.76 39 0 39 C0 26.13 0 13.26 0 0 Z " fill="#FEF9E0" transform="translate(248,371)"/>
<path d="M0 0 C37.62 0 75.24 0 114 0 C114 12.87 114 25.74 114 39 C76.38 39 38.76 39 0 39 C0 26.13 0 13.26 0 0 Z " fill="#FEF9E0" transform="translate(76,371)"/>
<path d="M0 0 C5.42159884 3.17361883 8.69726353 7.06444685 10.70703125 13.09375 C11.52877105 21.47549591 8.0749384 26.57224385 2.9987793 32.83520508 C-15.76799253 55.30164724 -15.76799253 55.30164724 -26.85546875 56.46875 C-28.06203125 56.283125 -28.06203125 56.283125 -29.29296875 56.09375 C-34.963185 44.75331749 -28.63578505 24.6315068 -25.125 13.3359375 C-22.86296033 7.37703687 -20.72798747 3.52017484 -15.29296875 0.09375 C-10.28071381 -1.57700165 -4.98839983 -1.97156518 0 0 Z " fill="#FEFAE0" transform="translate(277.29296875,0.90625)"/>
<path d="M0 0 C4.88124895 4.40502954 7.35612731 8.59450864 9.1875 14.875 C9.39914795 15.5860791 9.6107959 16.2971582 9.82885742 17.02978516 C12.76728535 27.17781101 17.58876666 45.25996668 12.5625 55.3125 C2.28749512 55.3125 -6.40990869 46.10085416 -13.4375 39.3125 C-15.91568162 36.74995475 -18.21340746 34.09781216 -20.4375 31.3125 C-21.00984375 30.6009375 -21.5821875 29.889375 -22.171875 29.15625 C-26.15791851 23.76560068 -27.89762816 19.06852818 -27.4375 12.3125 C-25.82189932 6.25399745 -22.5188051 2.75392936 -17.4375 -0.6875 C-11.62364524 -2.62545159 -5.51641224 -2.70805692 0 0 Z " fill="#FEFAE0" transform="translate(177.4375,3.6875)"/>
<path d="M0 0 C3.73039833 1.97077648 6.22141874 4.29084352 7.98046875 8.15234375 C9.13590106 12.24887648 9.09549654 14.65733595 7.9375 18.8125 C1.9991576 28.58203104 -11.62205855 32.26324414 -22.03125 35.3203125 C-25.8499386 36.1945912 -29.1059286 36.30541736 -33 36 C-33 22.86166322 -24.20003989 12.40585006 -15.515625 3.328125 C-10.48356003 -1.32887923 -6.53503343 -1.84829228 0 0 Z " fill="#FEFAE0" transform="translate(330,71)"/>
<path d="M0 0 C11.09594678 5.08564228 18.39442621 19.97357937 23.2265625 30.73046875 C24 33 24 33 24 36 C11.09962276 37.5344061 -2.33677761 32.24476318 -13.15234375 25.4921875 C-16.09458424 23.11600174 -17.76061125 21.21178957 -18.50390625 17.44921875 C-18.6106829 12.41647937 -18.55339933 8.91830526 -15.25 4.9375 C-10.84938516 0.39242053 -6.28602938 -0.92945182 0 0 Z " fill="#FEFAE0" transform="translate(118,72)"/>
</svg>
